<svg width="762" height="544" viewBox="0 0 762 544" fill="none" xmlns="http://www.w3.org/2000/svg">
<g clip-path="url(#clip0_6_25)">
<g style="mix-blend-mode:difference" filter="url(#filter0_f_6_25)">
<ellipse cx="396" cy="267.5" rx="197" ry="63.5" fill="url(#paint0_linear_6_25)"/>
</g>
<g filter="url(#filter1_f_6_25)">
<ellipse cx="413" cy="272" rx="251" ry="106" fill="url(#paint1_linear_6_25)"/>
</g>
<g filter="url(#filter2_f_6_25)">
<path d="M320.692 266.558C320.692 264.261 321.051 262.138 321.769 260.19C322.507 258.221 323.522 256.519 324.814 255.083C326.126 253.648 327.675 252.53 329.459 251.73C331.264 250.91 333.232 250.5 335.365 250.5C337.437 250.5 339.333 250.89 341.056 251.669C342.779 252.428 344.276 253.504 345.547 254.899C346.819 256.293 347.834 257.965 348.593 259.913C349.352 261.861 349.803 264.015 349.946 266.373C350.09 268.896 349.823 271.182 349.146 273.233C348.49 275.263 347.516 276.996 346.224 278.432C344.932 279.847 343.384 280.944 341.579 281.723C339.795 282.502 337.857 282.892 335.765 282.892C333.755 282.892 331.838 282.533 330.013 281.815C328.208 281.077 326.608 280.011 325.214 278.616C323.84 277.222 322.743 275.52 321.922 273.51C321.102 271.479 320.692 269.162 320.692 266.558ZM328.259 267.081C328.259 268.885 328.516 270.516 329.028 271.972C329.541 273.428 330.228 274.668 331.089 275.694C331.951 276.699 332.945 277.478 334.073 278.032C335.201 278.585 336.391 278.862 337.642 278.862C338.893 278.862 340.062 278.596 341.148 278.062C342.235 277.509 343.179 276.74 343.979 275.755C344.778 274.75 345.404 273.551 345.855 272.156C346.306 270.762 346.532 269.213 346.532 267.511C346.532 265.83 346.306 264.25 345.855 262.774C345.404 261.277 344.768 259.975 343.948 258.867C343.148 257.76 342.194 256.888 341.087 256.252C339.979 255.617 338.77 255.299 337.457 255.299C336.288 255.299 335.15 255.565 334.042 256.099C332.956 256.632 331.981 257.411 331.12 258.437C330.259 259.441 329.562 260.672 329.028 262.128C328.516 263.584 328.259 265.235 328.259 267.081ZM360.835 255.114C361.307 254.54 361.82 254.017 362.374 253.545C362.927 253.053 363.532 252.633 364.188 252.284C364.845 251.915 365.542 251.628 366.28 251.423C367.039 251.218 367.849 251.115 368.71 251.115C370.29 251.177 371.787 251.546 373.202 252.223C374.637 252.899 375.888 253.874 376.955 255.145C378.042 256.396 378.903 257.944 379.539 259.79C380.174 261.615 380.492 263.707 380.492 266.065C380.492 268.937 380.154 271.449 379.477 273.602C378.8 275.755 377.877 277.55 376.708 278.985C375.54 280.4 374.166 281.467 372.586 282.185C371.028 282.902 369.356 283.261 367.572 283.261C366.014 283.261 364.568 282.995 363.235 282.461C361.902 281.928 360.743 281.19 359.759 280.247L359.451 287.168L365.604 290.49L350.5 293.074L355.145 288.429L353.883 255.483L348.285 253.269L361.02 251.115L360.835 255.114ZM367.757 255.022C367.47 255.022 367.06 255.073 366.526 255.176C365.993 255.278 365.388 255.514 364.711 255.883C364.055 256.252 363.358 256.786 362.62 257.483C361.902 258.18 361.215 259.124 360.559 260.313L359.943 275.632C360.6 276.658 361.399 277.509 362.343 278.186C363.307 278.842 364.373 279.17 365.542 279.17C366.937 279.17 368.136 278.821 369.141 278.124C370.146 277.427 370.966 276.463 371.602 275.232C372.258 273.981 372.73 272.515 373.017 270.833C373.325 269.152 373.479 267.327 373.479 265.358C373.479 263.922 373.355 262.579 373.109 261.328C372.863 260.057 372.504 258.959 372.033 258.037C371.561 257.093 370.966 256.355 370.249 255.822C369.531 255.289 368.7 255.022 367.757 255.022Z" fill="url(#paint2_linear_6_25)"/>
</g>
<g filter="url(#filter3_d_6_25)">
<path d="M277.07 268.68C277.07 267.634 276.906 266.711 276.578 265.911C276.27 265.091 275.716 264.353 274.917 263.696C274.137 263.04 273.05 262.415 271.656 261.82C270.282 261.225 268.539 260.62 266.426 260.005C264.211 259.349 262.212 258.621 260.428 257.821C258.644 257 257.116 256.067 255.844 255.021C254.573 253.976 253.599 252.776 252.922 251.422C252.245 250.069 251.907 248.521 251.907 246.777C251.907 245.034 252.266 243.424 252.983 241.948C253.701 240.471 254.727 239.189 256.06 238.103C257.413 236.995 259.023 236.134 260.889 235.519C262.755 234.903 264.837 234.596 267.134 234.596C270.497 234.596 273.348 235.242 275.686 236.534C278.044 237.805 279.838 239.477 281.069 241.548C282.299 243.599 282.915 245.793 282.915 248.131H277.008C277.008 246.449 276.649 244.962 275.932 243.67C275.214 242.358 274.127 241.333 272.671 240.594C271.215 239.835 269.369 239.456 267.134 239.456C265.021 239.456 263.278 239.774 261.904 240.41C260.53 241.045 259.505 241.907 258.828 242.994C258.172 244.081 257.844 245.321 257.844 246.716C257.844 247.659 258.039 248.521 258.428 249.3C258.838 250.059 259.464 250.766 260.305 251.422C261.166 252.079 262.253 252.684 263.565 253.237C264.898 253.791 266.488 254.324 268.333 254.837C270.876 255.555 273.071 256.354 274.917 257.236C276.762 258.118 278.28 259.113 279.469 260.22C280.679 261.307 281.571 262.548 282.146 263.942C282.74 265.316 283.038 266.875 283.038 268.618C283.038 270.443 282.668 272.094 281.93 273.571C281.192 275.047 280.136 276.309 278.762 277.354C277.388 278.4 275.737 279.21 273.809 279.785C271.902 280.338 269.769 280.615 267.411 280.615C265.339 280.615 263.299 280.328 261.289 279.754C259.3 279.18 257.485 278.318 255.844 277.17C254.224 276.021 252.922 274.606 251.938 272.925C250.974 271.223 250.492 269.254 250.492 267.019H256.398C256.398 268.557 256.695 269.879 257.29 270.987C257.885 272.074 258.695 272.976 259.72 273.694C260.766 274.412 261.945 274.945 263.258 275.293C264.591 275.622 265.975 275.786 267.411 275.786C269.482 275.786 271.235 275.499 272.671 274.924C274.106 274.35 275.193 273.53 275.932 272.463C276.69 271.397 277.07 270.136 277.07 268.68ZM295.185 232.75V280H289.494V232.75H295.185ZM293.831 262.097L291.462 262.004C291.483 259.728 291.821 257.626 292.478 255.698C293.134 253.75 294.057 252.058 295.246 250.623C296.436 249.187 297.851 248.08 299.491 247.3C301.152 246.5 302.988 246.101 304.998 246.101C306.638 246.101 308.115 246.326 309.427 246.777C310.74 247.208 311.857 247.905 312.78 248.869C313.724 249.833 314.441 251.084 314.934 252.622C315.426 254.14 315.672 255.996 315.672 258.19V280H309.95V258.128C309.95 256.385 309.694 254.991 309.181 253.945C308.668 252.878 307.92 252.109 306.936 251.638C305.951 251.146 304.741 250.899 303.306 250.899C301.891 250.899 300.599 251.197 299.43 251.792C298.281 252.386 297.287 253.207 296.446 254.252C295.625 255.298 294.979 256.498 294.508 257.852C294.057 259.185 293.831 260.6 293.831 262.097ZM391.142 253.114V292.797H385.42V246.716H390.649L391.142 253.114ZM413.567 263.081V263.727C413.567 266.147 413.28 268.393 412.706 270.464C412.131 272.515 411.291 274.299 410.183 275.816C409.096 277.334 407.753 278.513 406.153 279.354C404.554 280.195 402.718 280.615 400.647 280.615C398.535 280.615 396.668 280.267 395.048 279.569C393.428 278.872 392.054 277.857 390.926 276.524C389.798 275.191 388.896 273.591 388.219 271.725C387.563 269.859 387.112 267.757 386.866 265.419V261.974C387.112 259.513 387.573 257.308 388.25 255.36C388.927 253.412 389.819 251.75 390.926 250.376C392.054 248.982 393.418 247.926 395.018 247.208C396.617 246.47 398.463 246.101 400.555 246.101C402.646 246.101 404.502 246.511 406.123 247.331C407.743 248.131 409.106 249.279 410.214 250.776C411.321 252.273 412.152 254.068 412.706 256.16C413.28 258.231 413.567 260.538 413.567 263.081ZM407.845 263.727V263.081C407.845 261.42 407.671 259.861 407.322 258.405C406.974 256.929 406.43 255.637 405.692 254.529C404.974 253.401 404.051 252.52 402.923 251.884C401.795 251.228 400.452 250.899 398.894 250.899C397.458 250.899 396.207 251.146 395.141 251.638C394.095 252.13 393.203 252.796 392.464 253.637C391.726 254.458 391.121 255.401 390.649 256.467C390.198 257.513 389.86 258.6 389.634 259.728V267.695C390.044 269.131 390.619 270.484 391.357 271.756C392.095 273.007 393.08 274.022 394.31 274.801C395.541 275.56 397.089 275.939 398.955 275.939C400.493 275.939 401.816 275.622 402.923 274.986C404.051 274.33 404.974 273.438 405.692 272.31C406.43 271.182 406.974 269.89 407.322 268.434C407.671 266.957 407.845 265.388 407.845 263.727ZM426.76 246.716V280H421.038V246.716H426.76ZM420.607 237.887C420.607 236.964 420.884 236.185 421.438 235.549C422.012 234.914 422.853 234.596 423.96 234.596C425.047 234.596 425.878 234.914 426.452 235.549C427.047 236.185 427.344 236.964 427.344 237.887C427.344 238.769 427.047 239.528 426.452 240.164C425.878 240.779 425.047 241.086 423.96 241.086C422.853 241.086 422.012 240.779 421.438 240.164C420.884 239.528 420.607 238.769 420.607 237.887ZM441.337 253.822V280H435.646V246.716H441.029L441.337 253.822ZM439.983 262.097L437.615 262.004C437.635 259.728 437.974 257.626 438.63 255.698C439.286 253.75 440.209 252.058 441.398 250.623C442.588 249.187 444.003 248.08 445.644 247.3C447.305 246.5 449.14 246.101 451.15 246.101C452.791 246.101 454.267 246.326 455.58 246.777C456.892 247.208 458.01 247.905 458.933 248.869C459.876 249.833 460.594 251.084 461.086 252.622C461.578 254.14 461.824 255.996 461.824 258.19V280H456.103V258.128C456.103 256.385 455.846 254.991 455.333 253.945C454.821 252.878 454.072 252.109 453.088 251.638C452.104 251.146 450.894 250.899 449.458 250.899C448.043 250.899 446.751 251.197 445.582 251.792C444.434 252.386 443.439 253.207 442.598 254.252C441.778 255.298 441.132 256.498 440.66 257.852C440.209 259.185 439.983 260.6 439.983 262.097ZM468.711 263.727V263.02C468.711 260.62 469.06 258.395 469.757 256.344C470.454 254.273 471.459 252.479 472.771 250.961C474.084 249.423 475.673 248.233 477.54 247.393C479.406 246.531 481.498 246.101 483.815 246.101C486.153 246.101 488.255 246.531 490.121 247.393C492.008 248.233 493.607 249.423 494.92 250.961C496.253 252.479 497.268 254.273 497.965 256.344C498.663 258.395 499.011 260.62 499.011 263.02V263.727C499.011 266.126 498.663 268.352 497.965 270.402C497.268 272.453 496.253 274.248 494.92 275.786C493.607 277.303 492.018 278.493 490.152 279.354C488.306 280.195 486.214 280.615 483.876 280.615C481.539 280.615 479.437 280.195 477.57 279.354C475.704 278.493 474.104 277.303 472.771 275.786C471.459 274.248 470.454 272.453 469.757 270.402C469.06 268.352 468.711 266.126 468.711 263.727ZM474.402 263.02V263.727C474.402 265.388 474.597 266.957 474.986 268.434C475.376 269.89 475.96 271.182 476.74 272.31C477.54 273.438 478.534 274.33 479.724 274.986C480.913 275.622 482.297 275.939 483.876 275.939C485.435 275.939 486.799 275.622 487.968 274.986C489.157 274.33 490.142 273.438 490.921 272.31C491.7 271.182 492.285 269.89 492.674 268.434C493.084 266.957 493.29 265.388 493.29 263.727V263.02C493.29 261.379 493.084 259.831 492.674 258.375C492.285 256.898 491.69 255.596 490.89 254.468C490.111 253.319 489.126 252.417 487.937 251.761C486.768 251.104 485.394 250.776 483.815 250.776C482.256 250.776 480.882 251.104 479.693 251.761C478.524 252.417 477.54 253.319 476.74 254.468C475.96 255.596 475.376 256.898 474.986 258.375C474.597 259.831 474.402 261.379 474.402 263.02ZM508.174 280.273C507.333 280.273 506.612 279.972 506.009 279.369C505.407 278.767 505.106 278.045 505.106 277.205C505.106 276.364 505.407 275.642 506.009 275.04C506.612 274.437 507.333 274.136 508.174 274.136C509.015 274.136 509.737 274.437 510.339 275.04C510.941 275.642 511.242 276.364 511.242 277.205C511.242 277.761 511.1 278.273 510.816 278.739C510.544 279.205 510.174 279.58 509.708 279.864C509.254 280.136 508.742 280.273 508.174 280.273ZM516.843 280V255.472H523.179V280H516.843ZM516.843 246.4H523.179V252.88H516.843V246.4ZM537.952 255.472H543.04C544.448 257.264 545.408 259.056 545.92 260.848C546.432 262.64 546.688 264.88 546.688 267.568V280H540.304V267.088C540.304 264.048 539.888 261.856 539.056 260.512H533.68V280H527.296V255.472H532.288L533.152 257.2C533.856 256.56 534.512 256.112 535.12 255.856C535.76 255.6 536.704 255.472 537.952 255.472Z" fill="url(#paint3_linear_6_25)"/>
</g>
<g filter="url(#filter4_f_6_25)">
<circle cx="424" cy="238" r="4" fill="white"/>
</g>
<g filter="url(#filter5_f_6_25)">
<path d="M275 308.5L338.5 242L367 296.5L434 227.5M434 227.5L430.5 224L438.5 223L437.5 231L434 227.5Z" stroke="url(#paint4_linear_6_25)" stroke-width="5"/>
</g>
<g filter="url(#filter6_d_6_25)">
<path d="M275 308.5L338.5 242L367 296.5L434 227.5M434 227.5L430.5 224L438.5 223L437.5 231L434 227.5Z" stroke="url(#paint5_linear_6_25)" stroke-width="5" shape-rendering="crispEdges"/>
</g>
<g filter="url(#filter7_d_6_25)">
<path d="M320.692 266.558C320.692 264.261 321.051 262.138 321.769 260.19C322.507 258.221 323.522 256.519 324.814 255.083C326.126 253.648 327.675 252.53 329.459 251.73C331.264 250.91 333.232 250.5 335.365 250.5C337.437 250.5 339.333 250.89 341.056 251.669C342.779 252.428 344.276 253.504 345.547 254.899C346.819 256.293 347.834 257.965 348.593 259.913C349.352 261.861 349.803 264.015 349.946 266.373C350.09 268.896 349.823 271.182 349.146 273.233C348.49 275.263 347.516 276.996 346.224 278.432C344.932 279.847 343.384 280.944 341.579 281.723C339.795 282.502 337.857 282.892 335.765 282.892C333.755 282.892 331.838 282.533 330.013 281.815C328.208 281.077 326.608 280.011 325.214 278.616C323.84 277.222 322.743 275.52 321.922 273.51C321.102 271.479 320.692 269.162 320.692 266.558ZM328.259 267.081C328.259 268.885 328.516 270.516 329.028 271.972C329.541 273.428 330.228 274.668 331.089 275.694C331.951 276.699 332.945 277.478 334.073 278.032C335.201 278.585 336.391 278.862 337.642 278.862C338.893 278.862 340.062 278.596 341.148 278.062C342.235 277.509 343.179 276.74 343.979 275.755C344.778 274.75 345.404 273.551 345.855 272.156C346.306 270.762 346.532 269.213 346.532 267.511C346.532 265.83 346.306 264.25 345.855 262.774C345.404 261.277 344.768 259.975 343.948 258.867C343.148 257.76 342.194 256.888 341.087 256.252C339.979 255.617 338.77 255.299 337.457 255.299C336.288 255.299 335.15 255.565 334.042 256.099C332.956 256.632 331.981 257.411 331.12 258.437C330.259 259.441 329.562 260.672 329.028 262.128C328.516 263.584 328.259 265.235 328.259 267.081ZM360.835 255.114C361.307 254.54 361.82 254.017 362.374 253.545C362.927 253.053 363.532 252.633 364.188 252.284C364.845 251.915 365.542 251.628 366.28 251.423C367.039 251.218 367.849 251.115 368.71 251.115C370.29 251.177 371.787 251.546 373.202 252.223C374.637 252.899 375.888 253.874 376.955 255.145C378.042 256.396 378.903 257.944 379.539 259.79C380.174 261.615 380.492 263.707 380.492 266.065C380.492 268.937 380.154 271.449 379.477 273.602C378.8 275.755 377.877 277.55 376.708 278.985C375.54 280.4 374.166 281.467 372.586 282.185C371.028 282.902 369.356 283.261 367.572 283.261C366.014 283.261 364.568 282.995 363.235 282.461C361.902 281.928 360.743 281.19 359.759 280.247L359.451 287.168L365.604 290.49L350.5 293.074L355.145 288.429L353.883 255.483L348.285 253.269L361.02 251.115L360.835 255.114ZM367.757 255.022C367.47 255.022 367.06 255.073 366.526 255.176C365.993 255.278 365.388 255.514 364.711 255.883C364.055 256.252 363.358 256.786 362.62 257.483C361.902 258.18 361.215 259.124 360.559 260.313L359.943 275.632C360.6 276.658 361.399 277.509 362.343 278.186C363.307 278.842 364.373 279.17 365.542 279.17C366.937 279.17 368.136 278.821 369.141 278.124C370.146 277.427 370.966 276.463 371.602 275.232C372.258 273.981 372.73 272.515 373.017 270.833C373.325 269.152 373.479 267.327 373.479 265.358C373.479 263.922 373.355 262.579 373.109 261.328C372.863 260.057 372.504 258.959 372.033 258.037C371.561 257.093 370.966 256.355 370.249 255.822C369.531 255.289 368.7 255.022 367.757 255.022Z" fill="url(#paint6_linear_6_25)"/>
</g>
<circle cx="424" cy="238" r="4" fill="white"/>
</g>
<defs>
<filter id="filter0_f_6_25" x="114.3" y="119.3" width="563.4" height="296.4" filterUnits="userSpaceOnUse" color-interpolation-filters="sRGB">
<feFlood flood-opacity="0" result="BackgroundImageFix"/>
<feBlend mode="normal" in="SourceGraphic" in2="BackgroundImageFix" result="shape"/>
<feGaussianBlur stdDeviation="42.35" result="effect1_foregroundBlur_6_25"/>
</filter>
<filter id="filter1_f_6_25" x="38.9" y="42.9" width="748.2" height="458.2" filterUnits="userSpaceOnUse" color-interpolation-filters="sRGB">
<feFlood flood-opacity="0" result="BackgroundImageFix"/>
<feBlend mode="normal" in="SourceGraphic" in2="BackgroundImageFix" result="shape"/>
<feGaussianBlur stdDeviation="61.55" result="effect1_foregroundBlur_6_25"/>
</filter>
<filter id="filter2_f_6_25" x="316.692" y="246.5" width="67.8003" height="50.5742" filterUnits="userSpaceOnUse" color-interpolation-filters="sRGB">
<feFlood flood-opacity="0" result="BackgroundImageFix"/>
<feBlend mode="normal" in="SourceGraphic" in2="BackgroundImageFix" result="shape"/>
<feGaussianBlur stdDeviation="2" result="effect1_foregroundBlur_6_25"/>
</filter>
<filter id="filter3_d_6_25" x="238.192" y="225.45" width="316.797" height="80.6469" filterUnits="userSpaceOnUse" color-interpolation-filters="sRGB">
<feFlood flood-opacity="0" result="BackgroundImageFix"/>
<feColorMatrix in="SourceAlpha" type="matrix" values="0 0 0 0 0 0 0 0 0 0 0 0 0 0 0 0 0 0 127 0" result="hardAlpha"/>
<feOffset dx="-2" dy="3"/>
<feGaussianBlur stdDeviation="5.15"/>
<feComposite in2="hardAlpha" operator="out"/>
<feColorMatrix type="matrix" values="0 0 0 0 0 0 0 0 0 0 0 0 0 0 0 0 0 0 0.25 0"/>
<feBlend mode="normal" in2="BackgroundImageFix" result="effect1_dropShadow_6_25"/>
<feBlend mode="normal" in="SourceGraphic" in2="effect1_dropShadow_6_25" result="shape"/>
</filter>
<filter id="filter4_f_6_25" x="417" y="231" width="14" height="14" filterUnits="userSpaceOnUse" color-interpolation-filters="sRGB">
<feFlood flood-opacity="0" result="BackgroundImageFix"/>
<feBlend mode="normal" in="SourceGraphic" in2="BackgroundImageFix" result="shape"/>
<feGaussianBlur stdDeviation="1.5" result="effect1_foregroundBlur_6_25"/>
</filter>
<filter id="filter5_f_6_25" x="260.492" y="207.421" width="193.587" height="115.506" filterUnits="userSpaceOnUse" color-interpolation-filters="sRGB">
<feFlood flood-opacity="0" result="BackgroundImageFix"/>
<feBlend mode="normal" in="SourceGraphic" in2="BackgroundImageFix" result="shape"/>
<feGaussianBlur stdDeviation="6.35" result="effect1_foregroundBlur_6_25"/>
</filter>
<filter id="filter6_d_6_25" x="265.092" y="216.021" width="184.387" height="106.306" filterUnits="userSpaceOnUse" color-interpolation-filters="sRGB">
<feFlood flood-opacity="0" result="BackgroundImageFix"/>
<feColorMatrix in="SourceAlpha" type="matrix" values="0 0 0 0 0 0 0 0 0 0 0 0 0 0 0 0 0 0 127 0" result="hardAlpha"/>
<feOffset dy="4"/>
<feGaussianBlur stdDeviation="4.05"/>
<feComposite in2="hardAlpha" operator="out"/>
<feColorMatrix type="matrix" values="0 0 0 0 0 0 0 0 0 0 0 0 0 0 0 0 0 0 0.25 0"/>
<feBlend mode="normal" in2="BackgroundImageFix" result="effect1_dropShadow_6_25"/>
<feBlend mode="normal" in="SourceGraphic" in2="effect1_dropShadow_6_25" result="shape"/>
</filter>
<filter id="filter7_d_6_25" x="312.392" y="246.2" width="76.4003" height="59.1742" filterUnits="userSpaceOnUse" color-interpolation-filters="sRGB">
<feFlood flood-opacity="0" result="BackgroundImageFix"/>
<feColorMatrix in="SourceAlpha" type="matrix" values="0 0 0 0 0 0 0 0 0 0 0 0 0 0 0 0 0 0 127 0" result="hardAlpha"/>
<feOffset dy="4"/>
<feGaussianBlur stdDeviation="4.15"/>
<feComposite in2="hardAlpha" operator="out"/>
<feColorMatrix type="matrix" values="0 0 0 0 0 0 0 0 0 0 0 0 0 0 0 0 0 0 0.25 0"/>
<feBlend mode="normal" in2="BackgroundImageFix" result="effect1_dropShadow_6_25"/>
<feBlend mode="normal" in="SourceGraphic" in2="effect1_dropShadow_6_25" result="shape"/>
</filter>
<linearGradient id="paint0_linear_6_25" x1="241.826" y1="243.687" x2="581.189" y2="312.882" gradientUnits="userSpaceOnUse">
<stop stop-color="white"/>
<stop offset="0.305" stop-color="#D9CC2B"/>
<stop offset="0.729192" stop-color="#521E98"/>
<stop offset="1"/>
</linearGradient>
<linearGradient id="paint1_linear_6_25" x1="216.565" y1="232.25" x2="656.278" y2="300.68" gradientUnits="userSpaceOnUse">
<stop stop-color="white"/>
<stop offset="0.305" stop-color="#D9CC2B"/>
<stop offset="0.729192" stop-color="#521E98"/>
<stop offset="1"/>
</linearGradient>
<linearGradient id="paint2_linear_6_25" x1="339" y1="241.5" x2="388.5" y2="284" gradientUnits="userSpaceOnUse">
<stop stop-color="#FFF684"/>
<stop offset="1" stop-color="white"/>
</linearGradient>
<linearGradient id="paint3_linear_6_25" x1="248" y1="257" x2="549" y2="257" gradientUnits="userSpaceOnUse">
<stop stop-color="#F1EAFB"/>
<stop offset="1" stop-color="white"/>
</linearGradient>
<linearGradient id="paint4_linear_6_25" x1="440" y1="223" x2="275" y2="306" gradientUnits="userSpaceOnUse">
<stop stop-color="#521E98" stop-opacity="0.57"/>
<stop offset="0.524172" stop-color="#D9CC2B" stop-opacity="0.71"/>
<stop offset="1" stop-color="white" stop-opacity="0.58"/>
</linearGradient>
<linearGradient id="paint5_linear_6_25" x1="440" y1="223" x2="275" y2="306" gradientUnits="userSpaceOnUse">
<stop stop-color="#521E98"/>
<stop offset="0.524172" stop-color="#D9CC2B"/>
<stop offset="1" stop-color="white"/>
</linearGradient>
<linearGradient id="paint6_linear_6_25" x1="339" y1="241.5" x2="388.5" y2="284" gradientUnits="userSpaceOnUse">
<stop stop-color="#FFFCD7"/>
<stop offset="1" stop-color="white"/>
</linearGradient>
<clipPath id="clip0_6_25">
<rect width="762" height="544" fill="white"/>
</clipPath>
</defs>
</svg>
