<svg width="210" height="110" viewBox="0 0 300 300" fill="none" xmlns="http://www.w3.org/2000/svg">
<rect width="361" height="182" stroke="none"/>
<g filter="url(#filter0_f_6_25)">
<path d="M100.692 106.558C100.692 104.261 101.051 102.138 101.769 100.19C102.507 98.2212 103.522 96.519 104.814 95.0835C106.126 93.6479 107.675 92.5303 109.459 91.7305C111.264 90.9102 113.232 90.5 115.365 90.5C117.437 90.5 119.333 90.8896 121.056 91.6689C122.779 92.4277 124.276 93.5044 125.547 94.8989C126.819 96.2935 127.834 97.9648 128.593 99.9131C129.352 101.861 129.803 104.015 129.946 106.373C130.09 108.896 129.823 111.182 129.146 113.233C128.49 115.263 127.516 116.996 126.224 118.432C124.932 119.847 123.384 120.944 121.579 121.723C119.795 122.502 117.857 122.892 115.765 122.892C113.755 122.892 111.838 122.533 110.013 121.815C108.208 121.077 106.608 120.011 105.214 118.616C103.84 117.222 102.743 115.52 101.922 113.51C101.102 111.479 100.692 109.162 100.692 106.558ZM108.259 107.081C108.259 108.885 108.516 110.516 109.028 111.972C109.541 113.428 110.228 114.668 111.089 115.694C111.951 116.699 112.945 117.478 114.073 118.032C115.201 118.585 116.391 118.862 117.642 118.862C118.893 118.862 120.062 118.596 121.148 118.062C122.235 117.509 123.179 116.74 123.979 115.755C124.778 114.75 125.404 113.551 125.855 112.156C126.306 110.762 126.532 109.213 126.532 107.511C126.532 105.83 126.306 104.25 125.855 102.774C125.404 101.277 124.768 99.9746 123.948 98.8672C123.148 97.7598 122.194 96.8882 121.087 96.2524C119.979 95.6167 118.77 95.2988 117.457 95.2988C116.288 95.2988 115.15 95.5654 114.042 96.0986C112.956 96.6318 111.981 97.4111 111.12 98.4365C110.259 99.4414 109.562 100.672 109.028 102.128C108.516 103.584 108.259 105.235 108.259 107.081ZM140.835 95.1143C141.307 94.54 141.82 94.0171 142.374 93.5454C142.927 93.0532 143.532 92.6328 144.188 92.2842C144.845 91.915 145.542 91.6279 146.28 91.4229C147.039 91.2178 147.849 91.1152 148.71 91.1152C150.29 91.1768 151.787 91.5459 153.202 92.2227C154.637 92.8994 155.888 93.8735 156.955 95.145C158.042 96.396 158.903 97.9443 159.539 99.79C160.174 101.615 160.492 103.707 160.492 106.065C160.492 108.937 160.154 111.449 159.477 113.602C158.8 115.755 157.877 117.55 156.708 118.985C155.54 120.4 154.166 121.467 152.586 122.185C151.028 122.902 149.356 123.261 147.572 123.261C146.014 123.261 144.568 122.995 143.235 122.461C141.902 121.928 140.743 121.19 139.759 120.247L139.451 127.168L145.604 130.49L130.5 133.074L135.145 128.429L133.883 95.4834L128.285 93.2686L141.02 91.1152L140.835 95.1143ZM147.757 95.022C147.47 95.022 147.06 95.0732 146.526 95.1758C145.993 95.2783 145.388 95.5142 144.711 95.8833C144.055 96.2524 143.358 96.7856 142.62 97.4829C141.902 98.1802 141.215 99.1235 140.559 100.313L139.943 115.632C140.6 116.658 141.399 117.509 142.343 118.186C143.307 118.842 144.373 119.17 145.542 119.17C146.937 119.17 148.136 118.821 149.141 118.124C150.146 117.427 150.966 116.463 151.602 115.232C152.258 113.981 152.73 112.515 153.017 110.833C153.325 109.152 153.479 107.327 153.479 105.358C153.479 103.922 153.355 102.579 153.109 101.328C152.863 100.057 152.504 98.9595 152.033 98.0366C151.561 97.0933 150.966 96.355 150.249 95.8218C149.531 95.2886 148.7 95.022 147.757 95.022Z" fill="url(#paint0_linear_6_25)"/>
</g>
<g filter="url(#filter1_d_6_25)">
<path d="M57.0698 108.68C57.0698 107.634 56.9058 106.711 56.5776 105.911C56.27 105.091 55.7163 104.353 54.9165 103.696C54.1372 103.04 53.0503 102.415 51.6558 101.82C50.2817 101.225 48.5386 100.62 46.4263 100.005C44.2114 99.3486 42.2119 98.6206 40.4277 97.8208C38.6436 97.0005 37.1157 96.0674 35.8442 95.0215C34.5728 93.9756 33.5986 92.7759 32.9219 91.4224C32.2451 90.0688 31.9067 88.5205 31.9067 86.7773C31.9067 85.0342 32.2656 83.4243 32.9834 81.9478C33.7012 80.4712 34.7266 79.1895 36.0596 78.1025C37.4131 76.9951 39.0229 76.1338 40.8892 75.5186C42.7554 74.9033 44.8369 74.5957 47.1338 74.5957C50.4971 74.5957 53.3477 75.2417 55.6855 76.5337C58.0439 77.8052 59.8384 79.4766 61.0688 81.5479C62.2993 83.5986 62.9146 85.793 62.9146 88.1309H57.0083C57.0083 86.4492 56.6494 84.9624 55.9316 83.6704C55.2139 82.3579 54.127 81.3325 52.6709 80.5942C51.2148 79.8354 49.3691 79.4561 47.1338 79.4561C45.0215 79.4561 43.2783 79.7739 41.9043 80.4097C40.5303 81.0454 39.5049 81.9067 38.8281 82.9937C38.1719 84.0806 37.8438 85.3213 37.8438 86.7158C37.8438 87.6592 38.0386 88.5205 38.4282 89.2998C38.8384 90.0586 39.4639 90.7661 40.3047 91.4224C41.166 92.0786 42.2529 92.6836 43.5654 93.2373C44.8984 93.791 46.4878 94.3242 48.3335 94.8369C50.8765 95.5547 53.0708 96.3545 54.9165 97.2363C56.7622 98.1182 58.2798 99.1128 59.4692 100.22C60.6792 101.307 61.5713 102.548 62.1455 103.942C62.7402 105.316 63.0376 106.875 63.0376 108.618C63.0376 110.443 62.6685 112.094 61.9302 113.571C61.1919 115.047 60.1357 116.309 58.7617 117.354C57.3877 118.4 55.7368 119.21 53.8091 119.785C51.9019 120.338 49.769 120.615 47.4106 120.615C45.3394 120.615 43.2988 120.328 41.2891 119.754C39.2998 119.18 37.4849 118.318 35.8442 117.17C34.2241 116.021 32.9219 114.606 31.9375 112.925C30.9736 111.223 30.4917 109.254 30.4917 107.019H36.3979C36.3979 108.557 36.6953 109.879 37.29 110.987C37.8848 112.074 38.6948 112.976 39.7202 113.694C40.7661 114.412 41.9453 114.945 43.2578 115.293C44.5908 115.622 45.9751 115.786 47.4106 115.786C49.4819 115.786 51.2354 115.499 52.6709 114.924C54.1064 114.35 55.1934 113.53 55.9316 112.463C56.6904 111.397 57.0698 110.136 57.0698 108.68ZM75.1846 72.75V120H69.4937V72.75H75.1846ZM73.8311 102.097L71.4624 102.004C71.4829 99.728 71.8213 97.626 72.4775 95.6982C73.1338 93.75 74.0566 92.0581 75.2461 90.6226C76.4355 89.187 77.8506 88.0796 79.4912 87.3003C81.1523 86.5005 82.9878 86.1006 84.9976 86.1006C86.6382 86.1006 88.1147 86.3262 89.4272 86.7773C90.7397 87.208 91.8574 87.9053 92.7803 88.8691C93.7236 89.833 94.4414 91.084 94.9336 92.6221C95.4258 94.1396 95.6719 95.9956 95.6719 98.1899V120H89.9502V98.1284C89.9502 96.3853 89.6938 94.9907 89.1812 93.9448C88.6685 92.8784 87.9199 92.1094 86.9355 91.6377C85.9512 91.1455 84.7412 90.8994 83.3057 90.8994C81.8906 90.8994 80.5986 91.1968 79.4297 91.7915C78.2812 92.3862 77.2866 93.2065 76.4458 94.2524C75.6255 95.2983 74.9795 96.498 74.5078 97.8516C74.0566 99.1846 73.8311 100.6 73.8311 102.097ZM171.142 93.1143V132.797H165.42V86.7158H170.649L171.142 93.1143ZM193.567 103.081V103.727C193.567 106.147 193.28 108.393 192.706 110.464C192.131 112.515 191.291 114.299 190.183 115.816C189.096 117.334 187.753 118.513 186.153 119.354C184.554 120.195 182.718 120.615 180.647 120.615C178.535 120.615 176.668 120.267 175.048 119.569C173.428 118.872 172.054 117.857 170.926 116.524C169.798 115.191 168.896 113.591 168.219 111.725C167.563 109.859 167.112 107.757 166.866 105.419V101.974C167.112 99.5127 167.573 97.3081 168.25 95.3599C168.927 93.4116 169.819 91.7505 170.926 90.3765C172.054 88.9819 173.418 87.9258 175.018 87.208C176.617 86.4697 178.463 86.1006 180.555 86.1006C182.646 86.1006 184.502 86.5107 186.123 87.3311C187.743 88.1309 189.106 89.2793 190.214 90.7764C191.321 92.2734 192.152 94.0679 192.706 96.1597C193.28 98.231 193.567 100.538 193.567 103.081ZM187.845 103.727V103.081C187.845 101.42 187.671 99.8613 187.322 98.4053C186.974 96.9287 186.43 95.6367 185.692 94.5293C184.974 93.4014 184.051 92.5195 182.923 91.8838C181.795 91.2275 180.452 90.8994 178.894 90.8994C177.458 90.8994 176.207 91.1455 175.141 91.6377C174.095 92.1299 173.203 92.7964 172.464 93.6372C171.726 94.4575 171.121 95.4009 170.649 96.4673C170.198 97.5132 169.86 98.6001 169.634 99.728V107.695C170.044 109.131 170.619 110.484 171.357 111.756C172.095 113.007 173.08 114.022 174.31 114.801C175.541 115.56 177.089 115.939 178.955 115.939C180.493 115.939 181.816 115.622 182.923 114.986C184.051 114.33 184.974 113.438 185.692 112.31C186.43 111.182 186.974 109.89 187.322 108.434C187.671 106.957 187.845 105.388 187.845 103.727ZM206.76 86.7158V120H201.038V86.7158H206.76ZM200.607 77.8872C200.607 76.9644 200.884 76.1851 201.438 75.5493C202.012 74.9136 202.853 74.5957 203.96 74.5957C205.047 74.5957 205.878 74.9136 206.452 75.5493C207.047 76.1851 207.344 76.9644 207.344 77.8872C207.344 78.769 207.047 79.5278 206.452 80.1636C205.878 80.7788 205.047 81.0864 203.96 81.0864C202.853 81.0864 202.012 80.7788 201.438 80.1636C200.884 79.5278 200.607 78.769 200.607 77.8872ZM221.337 93.8218V120H215.646V86.7158H221.029L221.337 93.8218ZM219.983 102.097L217.615 102.004C217.635 99.728 217.974 97.626 218.63 95.6982C219.286 93.75 220.209 92.0581 221.398 90.6226C222.588 89.187 224.003 88.0796 225.644 87.3003C227.305 86.5005 229.14 86.1006 231.15 86.1006C232.791 86.1006 234.267 86.3262 235.58 86.7773C236.892 87.208 238.01 87.9053 238.933 88.8691C239.876 89.833 240.594 91.084 241.086 92.6221C241.578 94.1396 241.824 95.9956 241.824 98.1899V120H236.103V98.1284C236.103 96.3853 235.846 94.9907 235.333 93.9448C234.821 92.8784 234.072 92.1094 233.088 91.6377C232.104 91.1455 230.894 90.8994 229.458 90.8994C228.043 90.8994 226.751 91.1968 225.582 91.7915C224.434 92.3862 223.439 93.2065 222.598 94.2524C221.778 95.2983 221.132 96.498 220.66 97.8516C220.209 99.1846 219.983 100.6 219.983 102.097ZM248.711 103.727V103.02C248.711 100.62 249.06 98.395 249.757 96.3442C250.454 94.2729 251.459 92.4785 252.771 90.9609C254.084 89.4229 255.673 88.2334 257.54 87.3926C259.406 86.5312 261.498 86.1006 263.815 86.1006C266.153 86.1006 268.255 86.5312 270.121 87.3926C272.008 88.2334 273.607 89.4229 274.92 90.9609C276.253 92.4785 277.268 94.2729 277.965 96.3442C278.663 98.395 279.011 100.62 279.011 103.02V103.727C279.011 106.126 278.663 108.352 277.965 110.402C277.268 112.453 276.253 114.248 274.92 115.786C273.607 117.303 272.018 118.493 270.152 119.354C268.306 120.195 266.214 120.615 263.876 120.615C261.539 120.615 259.437 120.195 257.57 119.354C255.704 118.493 254.104 117.303 252.771 115.786C251.459 114.248 250.454 112.453 249.757 110.402C249.06 108.352 248.711 106.126 248.711 103.727ZM254.402 103.02V103.727C254.402 105.388 254.597 106.957 254.986 108.434C255.376 109.89 255.96 111.182 256.74 112.31C257.54 113.438 258.534 114.33 259.724 114.986C260.913 115.622 262.297 115.939 263.876 115.939C265.435 115.939 266.799 115.622 267.968 114.986C269.157 114.33 270.142 113.438 270.921 112.31C271.7 111.182 272.285 109.89 272.674 108.434C273.084 106.957 273.29 105.388 273.29 103.727V103.02C273.29 101.379 273.084 99.8306 272.674 98.3745C272.285 96.8979 271.69 95.5957 270.89 94.4678C270.111 93.3193 269.126 92.417 267.937 91.7607C266.768 91.1045 265.394 90.7764 263.815 90.7764C262.256 90.7764 260.882 91.1045 259.693 91.7607C258.524 92.417 257.54 93.3193 256.74 94.4678C255.96 95.5957 255.376 96.8979 254.986 98.3745C254.597 99.8306 254.402 101.379 254.402 103.02ZM288.174 120.273C287.333 120.273 286.612 119.972 286.009 119.369C285.407 118.767 285.106 118.045 285.106 117.205C285.106 116.364 285.407 115.642 286.009 115.04C286.612 114.437 287.333 114.136 288.174 114.136C289.015 114.136 289.737 114.437 290.339 115.04C290.941 115.642 291.242 116.364 291.242 117.205C291.242 117.761 291.1 118.273 290.816 118.739C290.544 119.205 290.174 119.58 289.708 119.864C289.254 120.136 288.742 120.273 288.174 120.273ZM296.843 120V95.472H303.179V120H296.843ZM296.843 86.4H303.179V92.88H296.843V86.4ZM317.952 95.472H323.04C324.448 97.264 325.408 99.056 325.92 100.848C326.432 102.64 326.688 104.88 326.688 107.568V120H320.304V107.088C320.304 104.048 319.888 101.856 319.056 100.512H313.68V120H307.296V95.472H312.288L313.152 97.2C313.856 96.56 314.512 96.112 315.12 95.856C315.76 95.6 316.704 95.472 317.952 95.472Z" fill="url(#paint1_linear_6_25)"/>
</g>
<g filter="url(#filter2_f_6_25)">
<circle cx="204" cy="78" r="4" fill="white"/>
</g>
<g filter="url(#filter3_f_6_25)">
<path d="M55 148.5L118.5 82L147 136.5L214 67.5M214 67.5L210.5 64L218.5 63L217.5 71L214 67.5Z" stroke="url(#paint2_linear_6_25)" stroke-width="5"/>
</g>
<g filter="url(#filter4_d_6_25)">
<path d="M55 148.5L118.5 82L147 136.5L214 67.5M214 67.5L210.5 64L218.5 63L217.5 71L214 67.5Z" stroke="url(#paint3_linear_6_25)" stroke-width="5" shape-rendering="crispEdges"/>
</g>
<g filter="url(#filter5_d_6_25)">
<path d="M100.692 106.558C100.692 104.261 101.051 102.138 101.769 100.19C102.507 98.2212 103.522 96.519 104.814 95.0835C106.126 93.6479 107.675 92.5303 109.459 91.7305C111.264 90.9102 113.232 90.5 115.365 90.5C117.437 90.5 119.333 90.8896 121.056 91.6689C122.779 92.4277 124.276 93.5044 125.547 94.8989C126.819 96.2935 127.834 97.9648 128.593 99.9131C129.352 101.861 129.803 104.015 129.946 106.373C130.09 108.896 129.823 111.182 129.146 113.233C128.49 115.263 127.516 116.996 126.224 118.432C124.932 119.847 123.384 120.944 121.579 121.723C119.795 122.502 117.857 122.892 115.765 122.892C113.755 122.892 111.838 122.533 110.013 121.815C108.208 121.077 106.608 120.011 105.214 118.616C103.84 117.222 102.743 115.52 101.922 113.51C101.102 111.479 100.692 109.162 100.692 106.558ZM108.259 107.081C108.259 108.885 108.516 110.516 109.028 111.972C109.541 113.428 110.228 114.668 111.089 115.694C111.951 116.699 112.945 117.478 114.073 118.032C115.201 118.585 116.391 118.862 117.642 118.862C118.893 118.862 120.062 118.596 121.148 118.062C122.235 117.509 123.179 116.74 123.979 115.755C124.778 114.75 125.404 113.551 125.855 112.156C126.306 110.762 126.532 109.213 126.532 107.511C126.532 105.83 126.306 104.25 125.855 102.774C125.404 101.277 124.768 99.9746 123.948 98.8672C123.148 97.7598 122.194 96.8882 121.087 96.2524C119.979 95.6167 118.77 95.2988 117.457 95.2988C116.288 95.2988 115.15 95.5654 114.042 96.0986C112.956 96.6318 111.981 97.4111 111.12 98.4365C110.259 99.4414 109.562 100.672 109.028 102.128C108.516 103.584 108.259 105.235 108.259 107.081ZM140.835 95.1143C141.307 94.54 141.82 94.0171 142.374 93.5454C142.927 93.0532 143.532 92.6328 144.188 92.2842C144.845 91.915 145.542 91.6279 146.28 91.4229C147.039 91.2178 147.849 91.1152 148.71 91.1152C150.29 91.1768 151.787 91.5459 153.202 92.2227C154.637 92.8994 155.888 93.8735 156.955 95.145C158.042 96.396 158.903 97.9443 159.539 99.79C160.174 101.615 160.492 103.707 160.492 106.065C160.492 108.937 160.154 111.449 159.477 113.602C158.8 115.755 157.877 117.55 156.708 118.985C155.54 120.4 154.166 121.467 152.586 122.185C151.028 122.902 149.356 123.261 147.572 123.261C146.014 123.261 144.568 122.995 143.235 122.461C141.902 121.928 140.743 121.19 139.759 120.247L139.451 127.168L145.604 130.49L130.5 133.074L135.145 128.429L133.883 95.4834L128.285 93.2686L141.02 91.1152L140.835 95.1143ZM147.757 95.022C147.47 95.022 147.06 95.0732 146.526 95.1758C145.993 95.2783 145.388 95.5142 144.711 95.8833C144.055 96.2524 143.358 96.7856 142.62 97.4829C141.902 98.1802 141.215 99.1235 140.559 100.313L139.943 115.632C140.6 116.658 141.399 117.509 142.343 118.186C143.307 118.842 144.373 119.17 145.542 119.17C146.937 119.17 148.136 118.821 149.141 118.124C150.146 117.427 150.966 116.463 151.602 115.232C152.258 113.981 152.73 112.515 153.017 110.833C153.325 109.152 153.479 107.327 153.479 105.358C153.479 103.922 153.355 102.579 153.109 101.328C152.863 100.057 152.504 98.9595 152.033 98.0366C151.561 97.0933 150.966 96.355 150.249 95.8218C149.531 95.2886 148.7 95.022 147.757 95.022Z" fill="url(#paint4_linear_6_25)"/>
</g>
<circle cx="204" cy="78" r="4" fill="white"/>
<defs>
<filter id="filter0_f_6_25" x="96.6919" y="86.5" width="67.8003" height="50.5742" filterUnits="userSpaceOnUse" color-interpolation-filters="sRGB">
<feFlood flood-opacity="0" result="BackgroundImageFix"/>
<feBlend mode="normal" in="SourceGraphic" in2="BackgroundImageFix" result="shape"/>
<feGaussianBlur stdDeviation="2" result="effect1_foregroundBlur_6_25"/>
</filter>
<filter id="filter1_d_6_25" x="18.1917" y="65.45" width="316.797" height="80.6469" filterUnits="userSpaceOnUse" color-interpolation-filters="sRGB">
<feFlood flood-opacity="0" result="BackgroundImageFix"/>
<feColorMatrix in="SourceAlpha" type="matrix" values="0 0 0 0 0 0 0 0 0 0 0 0 0 0 0 0 0 0 127 0" result="hardAlpha"/>
<feOffset dx="-2" dy="3"/>
<feGaussianBlur stdDeviation="5.15"/>
<feComposite in2="hardAlpha" operator="out"/>
<feColorMatrix type="matrix" values="0 0 0 0 0 0 0 0 0 0 0 0 0 0 0 0 0 0 0.25 0"/>
<feBlend mode="normal" in2="BackgroundImageFix" result="effect1_dropShadow_6_25"/>
<feBlend mode="normal" in="SourceGraphic" in2="effect1_dropShadow_6_25" result="shape"/>
</filter>
<filter id="filter2_f_6_25" x="197" y="71" width="14" height="14" filterUnits="userSpaceOnUse" color-interpolation-filters="sRGB">
<feFlood flood-opacity="0" result="BackgroundImageFix"/>
<feBlend mode="normal" in="SourceGraphic" in2="BackgroundImageFix" result="shape"/>
<feGaussianBlur stdDeviation="1.5" result="effect1_foregroundBlur_6_25"/>
</filter>
<filter id="filter3_f_6_25" x="40.4919" y="47.4206" width="193.587" height="115.506" filterUnits="userSpaceOnUse" color-interpolation-filters="sRGB">
<feFlood flood-opacity="0" result="BackgroundImageFix"/>
<feBlend mode="normal" in="SourceGraphic" in2="BackgroundImageFix" result="shape"/>
<feGaussianBlur stdDeviation="6.35" result="effect1_foregroundBlur_6_25"/>
</filter>
<filter id="filter4_d_6_25" x="45.0919" y="56.0206" width="184.387" height="106.306" filterUnits="userSpaceOnUse" color-interpolation-filters="sRGB">
<feFlood flood-opacity="0" result="BackgroundImageFix"/>
<feColorMatrix in="SourceAlpha" type="matrix" values="0 0 0 0 0 0 0 0 0 0 0 0 0 0 0 0 0 0 127 0" result="hardAlpha"/>
<feOffset dy="4"/>
<feGaussianBlur stdDeviation="4.05"/>
<feComposite in2="hardAlpha" operator="out"/>
<feColorMatrix type="matrix" values="0 0 0 0 0 0 0 0 0 0 0 0 0 0 0 0 0 0 0.25 0"/>
<feBlend mode="normal" in2="BackgroundImageFix" result="effect1_dropShadow_6_25"/>
<feBlend mode="normal" in="SourceGraphic" in2="effect1_dropShadow_6_25" result="shape"/>
</filter>
<filter id="filter5_d_6_25" x="92.3919" y="86.2" width="76.4003" height="59.1742" filterUnits="userSpaceOnUse" color-interpolation-filters="sRGB">
<feFlood flood-opacity="0" result="BackgroundImageFix"/>
<feColorMatrix in="SourceAlpha" type="matrix" values="0 0 0 0 0 0 0 0 0 0 0 0 0 0 0 0 0 0 127 0" result="hardAlpha"/>
<feOffset dy="4"/>
<feGaussianBlur stdDeviation="4.15"/>
<feComposite in2="hardAlpha" operator="out"/>
<feColorMatrix type="matrix" values="0 0 0 0 0 0 0 0 0 0 0 0 0 0 0 0 0 0 0.25 0"/>
<feBlend mode="normal" in2="BackgroundImageFix" result="effect1_dropShadow_6_25"/>
<feBlend mode="normal" in="SourceGraphic" in2="effect1_dropShadow_6_25" result="shape"/>
</filter>
<linearGradient id="paint0_linear_6_25" x1="119" y1="81.5" x2="168.5" y2="124" gradientUnits="userSpaceOnUse">
<stop stop-color="#FFF684"/>
<stop offset="1" stop-color="white"/>
</linearGradient>
<linearGradient id="paint1_linear_6_25" x1="28" y1="97" x2="329" y2="97" gradientUnits="userSpaceOnUse">
<stop stop-color="#F1EAFB"/>
<stop offset="1" stop-color="white"/>
</linearGradient>
<linearGradient id="paint2_linear_6_25" x1="220" y1="63" x2="55" y2="146" gradientUnits="userSpaceOnUse">
<stop stop-color="#521E98" stop-opacity="0.57"/>
<stop offset="0.524172" stop-color="#D9CC2B" stop-opacity="0.71"/>
<stop offset="1" stop-color="white" stop-opacity="0.58"/>
</linearGradient>
<linearGradient id="paint3_linear_6_25" x1="220" y1="63" x2="55" y2="146" gradientUnits="userSpaceOnUse">
<stop stop-color="#521E98"/>
<stop offset="0.524172" stop-color="#D9CC2B"/>
<stop offset="1" stop-color="white"/>
</linearGradient>
<linearGradient id="paint4_linear_6_25" x1="119" y1="81.5" x2="168.5" y2="124" gradientUnits="userSpaceOnUse">
<stop stop-color="#FFFCD7"/>
<stop offset="1" stop-color="white"/>
</linearGradient>

</defs>
</svg>